<?xml version="1.0" encoding="utf-8"?>
<!-- Generator: Adobe Illustrator 16.0.0, SVG Export Plug-In . SVG Version: 6.00 Build 0)  -->
<!DOCTYPE svg PUBLIC "-//W3C//DTD SVG 1.1//EN" "http://www.w3.org/Graphics/SVG/1.1/DTD/svg11.dtd">
<svg version="1.1" id="Layer_1" xmlns="http://www.w3.org/2000/svg" xmlns:xlink="http://www.w3.org/1999/xlink" x="0px" y="0px"
	 width="32.406px" height="26.896px" viewBox="0 0 32.406 26.896" enable-background="new 0 0 32.406 26.896" xml:space="preserve">
<path fill="white" d="M16.203,26.896c-2.813,0-9.513-0.212-10.968-2.177c-0.335-0.451-0.431-0.987-0.272-1.51
	c0.067-0.221,0.12-0.459,0.177-0.709c0.368-1.618,0.923-4.064,5.1-5.179c1.516-0.404,2.25-0.793,2.597-1.044
	c-1.645-1.26-2.635-3.35-2.635-5.66c0-3.771,2.692-6.84,6.002-6.84c3.309,0,6.001,3.068,6.001,6.84c0,2.311-0.99,4.4-2.635,5.66
	c0.347,0.251,1.081,0.64,2.597,1.044c4.176,1.114,4.731,3.56,5.1,5.178c0.057,0.25,0.11,0.488,0.178,0.71
	c0.158,0.522,0.063,1.059-0.272,1.51C25.716,26.685,19.016,26.896,16.203,26.896z M6.928,23.614
	c0.671,0.547,3.888,1.282,9.275,1.282s8.604-0.735,9.275-1.282c-0.059-0.213-0.11-0.438-0.163-0.671
	c-0.338-1.484-0.656-2.886-3.665-3.689c-2.376-0.634-3.752-1.434-4.205-2.446c-0.307-0.686-0.091-1.213-0.018-1.357l0.141-0.277
	l0.271-0.148c1.437-0.786,2.364-2.516,2.364-4.406c0-2.669-1.795-4.84-4.001-4.84c-2.207,0-4.002,2.171-4.002,4.84
	c0,1.891,0.928,3.62,2.364,4.406l0.271,0.148l0.141,0.277c0.073,0.145,0.289,0.672-0.018,1.357
	c-0.453,1.013-1.829,1.813-4.205,2.446c-3.009,0.804-3.327,2.206-3.664,3.69C7.037,23.177,6.986,23.401,6.928,23.614z"/>
<path fill="white" d="M32.334,17.237c-0.059-0.193-0.105-0.401-0.154-0.619c-0.332-1.455-0.832-3.655-4.586-4.657
	c-1.162-0.31-1.791-0.607-2.125-0.817c1.404-1.143,2.246-2.973,2.246-4.988c0-3.394-2.43-6.155-5.416-6.155
	C20.547,0,18.99,0.955,18,2.427c0.674,0.145,1.307,0.419,1.881,0.798C20.5,2.469,21.355,2,22.299,2c1.883,0,3.416,1.864,3.416,4.155
	c0,1.627-0.797,3.113-2.027,3.787l-0.271,0.148l-0.141,0.277c-0.07,0.14-0.279,0.646,0.014,1.299
	c0.414,0.929,1.654,1.656,3.789,2.226c2.588,0.691,2.861,1.896,3.15,3.17c0.041,0.178,0.082,0.351,0.125,0.517
	c-0.414,0.275-1.594,0.598-3.426,0.815c0.441,0.642,0.682,1.304,0.846,1.909c1.912-0.274,3.66-0.762,4.303-1.629
	C32.395,18.245,32.486,17.734,32.334,17.237z"/>
<path fill="white" d="M0.071,17.237c0.059-0.193,0.105-0.401,0.155-0.619c0.331-1.455,0.832-3.655,4.586-4.657
	c1.161-0.31,1.79-0.607,2.124-0.817c-1.404-1.143-2.245-2.973-2.245-4.988C4.691,2.762,7.121,0,10.107,0
	c1.752,0,3.308,0.955,4.298,2.427c-0.673,0.145-1.306,0.419-1.88,0.798C11.906,2.469,11.051,2,10.107,2
	C8.224,2,6.691,3.864,6.691,6.155c0,1.627,0.796,3.113,2.026,3.787l0.272,0.148l0.141,0.277c0.07,0.14,0.278,0.646-0.014,1.299
	c-0.415,0.929-1.655,1.656-3.789,2.226c-2.588,0.691-2.861,1.896-3.151,3.17c-0.041,0.178-0.081,0.351-0.124,0.517
	c0.414,0.275,1.593,0.598,3.426,0.815c-0.441,0.642-0.683,1.304-0.847,1.909c-1.911-0.274-3.659-0.762-4.302-1.629
	C0.012,18.245-0.08,17.734,0.071,17.237z"/>
</svg>
