<?xml version="1.0" encoding="utf-8"?>
<!-- Generator: Adobe Illustrator 16.0.0, SVG Export Plug-In . SVG Version: 6.00 Build 0)  -->
<!DOCTYPE svg PUBLIC "-//W3C//DTD SVG 1.1//EN" "http://www.w3.org/Graphics/SVG/1.1/DTD/svg11.dtd">
<svg version="1.1" id="Layer_1" xmlns="http://www.w3.org/2000/svg" xmlns:xlink="http://www.w3.org/1999/xlink" x="0px" y="0px"
	 width="29.208px" height="20.539px" viewBox="0 0 29.208 20.539" enable-background="new 0 0 29.208 20.539" xml:space="preserve">
<path fill="white" d="M0,18.642V1.897C0,0.853,0.851,0.001,1.897,0C2.923,0.001,3.76,0.818,3.793,1.836
	c2.368,0.182,8.285,0.988,10.104,4.548c0.065,0.086,0.291,0.357,0.689,0.568c0.013,0,0.023,0,0.035-0.001
	c0.397-0.211,0.622-0.481,0.688-0.567c1.819-3.56,7.735-4.366,10.104-4.548c0.033-1.018,0.871-1.835,1.896-1.835
	C28.357,0,29.208,0.853,29.207,1.898l0.001,16.743c0,1.046-0.851,1.897-1.896,1.897c-1.025,0-1.864-0.818-1.896-1.836
	c-2.368-0.182-8.287-0.989-10.105-4.551c-0.066-0.088-0.293-0.361-0.706-0.575c-0.477,0.248-0.715,0.588-0.718,0.592
	c-1.737,3.55-7.71,4.354-10.093,4.534c-0.034,1.018-0.87,1.836-1.896,1.836C0.851,20.539,0,19.688,0,18.642z M1.999,3.77v13
	l0.776-0.015c2.14-0.041,7.992-0.759,9.362-3.552c0.105-0.18,0.654-1.028,1.826-1.534c0.27-0.115,0.87-0.176,1.242-0.018
	c1.195,0.499,1.758,1.369,1.817,1.467c1.417,2.878,7.27,3.596,9.409,3.637l0.775,0.015v-13l-0.775,0.014
	c-2.141,0.042-7.992,0.76-9.362,3.553c-0.103,0.175-0.616,0.969-1.7,1.478c-0.337,0.157-1.082,0.201-1.472,0.028
	c-1.129-0.512-1.657-1.329-1.714-1.42c-1.417-2.879-7.271-3.597-9.41-3.639L1.999,3.77z"/>
<path fill="white" d="M3.326,11.411v3.82c0,0,6.7-0.945,7.872-2.248v-1.462L3.326,11.411z"/>
<path fill="white" d="M26.137,11.411v3.82c0,0-6.7-0.945-7.872-2.248v-1.462L26.137,11.411z"/>
</svg>
