<?xml version="1.0" encoding="utf-8"?>
<!-- Generator: Adobe Illustrator 16.0.0, SVG Export Plug-In . SVG Version: 6.00 Build 0)  -->
<!DOCTYPE svg PUBLIC "-//W3C//DTD SVG 1.1//EN" "http://www.w3.org/Graphics/SVG/1.1/DTD/svg11.dtd">
<svg version="1.1" id="Layer_1" xmlns="http://www.w3.org/2000/svg" xmlns:xlink="http://www.w3.org/1999/xlink" x="0px" y="0px"
	 width="18.915px" height="26.898px" viewBox="0 0 18.915 26.898" enable-background="new 0 0 18.915 26.898" xml:space="preserve">
<path fill="white" d="M9.458,15.541"/>
<path fill="white" d="M17.167,26.898H1.748C0.784,26.898,0,26.114,0,25.151c0-0.944,0.753-1.715,1.69-1.746
	c0.167-2.181,0.91-7.63,4.188-9.306c0.078-0.06,0.329-0.268,0.523-0.635c-0.001-0.012-0.001-0.022-0.001-0.033
	c-0.194-0.365-0.444-0.573-0.522-0.633C2.601,11.123,1.857,5.674,1.69,3.493C0.753,3.462,0,2.69,0,1.746C0,0.783,0.784,0,1.748,0
	h15.419c0.964,0,1.748,0.783,1.748,1.746c0,0.944-0.754,1.717-1.691,1.747c-0.167,2.181-0.911,7.632-4.189,9.307
	c-0.082,0.061-0.334,0.27-0.531,0.649c0.229,0.439,0.542,0.659,0.545,0.661c3.27,1.601,4.011,7.101,4.176,9.295
	c0.938,0.031,1.691,0.802,1.691,1.746C18.915,26.114,18.131,26.898,17.167,26.898z M3.471,25.057h11.973l-0.014-0.714
	c-0.038-1.971-0.699-7.36-3.271-8.622c-0.165-0.098-0.946-0.603-1.412-1.682c-0.106-0.249-0.161-0.802-0.016-1.145
	c0.46-1.101,1.26-1.619,1.35-1.674c2.65-1.305,3.312-6.694,3.35-8.665l0.014-0.714H3.471l0.014,0.714
	c0.038,1.971,0.699,7.36,3.271,8.622c0.161,0.095,0.893,0.567,1.361,1.566c0.145,0.31,0.185,0.995,0.026,1.354
	c-0.472,1.041-1.225,1.527-1.309,1.58c-2.65,1.305-3.312,6.694-3.35,8.665L3.471,25.057z"/>
<path fill="white" d="M11.641,17.381l-2.092-1.84l-2.17,1.778c-2.847,2.076-2.645,6.587-2.645,6.587h4.814h4.635
	C14.184,23.906,14.009,19.24,11.641,17.381z"/>
</svg>
