<?xml version="1.0" encoding="utf-8"?>
<!-- Generator: Adobe Illustrator 16.0.0, SVG Export Plug-In . SVG Version: 6.00 Build 0)  -->
<!DOCTYPE svg PUBLIC "-//W3C//DTD SVG 1.1//EN" "http://www.w3.org/Graphics/SVG/1.1/DTD/svg11.dtd">
<svg version="1.1" id="Layer_1" xmlns="http://www.w3.org/2000/svg" xmlns:xlink="http://www.w3.org/1999/xlink" x="0px" y="0px"
	 width="30px" height="32px" viewBox="0 0 30 32" enable-background="new 0 0 30 32" xml:space="preserve">
<path fill="white" d="M9,26c0.553,0,1-0.447,1-1V14c0-0.553-0.447-1-1-1s-1,0.447-1,1v11C8,25.553,8.447,26,9,26z"/>
<path fill="white" d="M15,26c0.553,0,1-0.447,1-1V14c0-0.553-0.447-1-1-1s-1,0.447-1,1v11C14,25.553,14.447,26,15,26z"/>
<path fill="white" d="M21,26c0.553,0,1-0.447,1-1V14c0-0.553-0.447-1-1-1s-1,0.447-1,1v11C20,25.553,20.447,26,21,26z"/>
<path fill="white" d="M27,9h2V8h1V7c0-2.205-1.794-4-4-4h-4.142c-0.447-1.721-2-3-3.858-3h-6c-1.858,0-3.411,1.279-3.858,3H4
	C1.794,3,0,4.795,0,7v1h1v1h2v19c0,2.205,1.794,4,4,4h16c2.206,0,4-1.795,4-4V9z M12,2h6c0.736,0,1.375,0.405,1.722,1h-9.443
	C10.625,2.405,11.264,2,12,2z M25,28c0,1.104-0.897,2-2,2H7c-1.103,0-2.139-0.896-2.139-2L5,9h20V28z M26,5c1.103,0,2,0.896,2,2
	h-2.382h-5H9.382h-5H2c0-1.104,0.897-2,2-2H26z"/>
</svg>
