<?xml version="1.0" encoding="utf-8"?>
<!-- Generator: Adobe Illustrator 16.0.0, SVG Export Plug-In . SVG Version: 6.00 Build 0)  -->
<!DOCTYPE svg PUBLIC "-//W3C//DTD SVG 1.1//EN" "http://www.w3.org/Graphics/SVG/1.1/DTD/svg11.dtd">
<svg version="1.1" id="Layer_1" xmlns="http://www.w3.org/2000/svg" xmlns:xlink="http://www.w3.org/1999/xlink" x="0px" y="0px"
	 width="31.969px" height="32.031px" viewBox="0 0 31.969 32.031" enable-background="new 0 0 31.969 32.031" xml:space="preserve">
<path fill="white" d="M26.974,13.704c-0.575,0-0.999,0.467-0.999,1.042v1.042v9.382v2.323c0,1.37-1.06,2.536-2.427,2.536H4.957
	c-1.368,0-2.959-1.166-2.959-2.536V8.84c0-1.372,1.591-2.834,2.959-2.834h1.276h6.233h3.117c0.575,0,1.04-0.425,1.04-1.001
	s-0.465-1.001-1.04-1.001h-3.117H6.233H4.957C2.225,4.004,0,6.096,0,8.84v18.654c0,2.743,2.225,4.538,4.957,4.538h18.59
	c2.733,0,4.425-1.795,4.425-4.538v-2.323v-9.382v-1.042C27.973,14.171,27.548,13.704,26.974,13.704z"/>
<path fill="white" d="M31.069,2.399l-1.522-1.527c-1.158-1.163-3.193-1.163-4.352,0L22.32,4.259l-15.327,14.7v0.358l-0.012,0.062
	l-1.928,6.547l1.416,1.266l6.184-2.185l0.078,0.017h0.304L27.691,9.65l3.378-2.764C32.268,5.684,32.268,3.603,31.069,2.399z
	 M7.776,24.489l0.9-2.873l1.799,1.805L7.776,24.489z M12.305,22.346L9.657,19.69L23.36,6.033l2.563,2.571L12.305,22.346z
	 M29.62,5.308l-2.042,2.047l-2.973-2.982l2.041-2.047c0.193-0.193,0.45-0.299,0.726-0.299c0.275,0,0.533,0.106,0.725,0.299
	l1.521,1.526C30.019,4.254,30.019,4.907,29.62,5.308z"/>
</svg>
