<?xml version="1.0" encoding="utf-8"?>
<!-- Generator: Adobe Illustrator 16.0.0, SVG Export Plug-In . SVG Version: 6.00 Build 0)  -->
<!DOCTYPE svg PUBLIC "-//W3C//DTD SVG 1.1//EN" "http://www.w3.org/Graphics/SVG/1.1/DTD/svg11.dtd">
<svg version="1.1" id="Layer_1" xmlns="http://www.w3.org/2000/svg" xmlns:xlink="http://www.w3.org/1999/xlink" x="0px" y="0px"
	 width="22px" height="22px" viewBox="0 0 22 22" enable-background="new 0 0 22 22" xml:space="preserve">
<path fill="white" d="M11,0C5.702,0,0,1.252,0,4v14c0,2.748,5.702,4,11,4s11-1.252,11-4V4C22,1.252,16.298,0,11,0z M11,2
	c5.797,0,8.795,1.434,8.997,2C19.795,4.566,16.797,6,11,6S2.205,4.566,2.003,4C2.205,3.434,5.203,2,11,2z M2,6.431
	C4.128,7.497,7.644,8,11,8s6.872-0.503,9-1.57l0,4.557C19.842,11.543,16.843,13,11,13c-5.85,0-8.849-1.46-9-2V6.431L2,6.431z M11,20
	c-5.85,0-8.849-1.46-9-2v-4.569C4.128,14.497,7.644,15,11,15c3.356,0,6.873-0.503,9.001-1.57l0,4.556C19.849,18.54,16.85,20,11,20z"
	/>
</svg>
