<?xml version="1.0" encoding="utf-8"?>
<!-- Generator: Adobe Illustrator 16.0.0, SVG Export Plug-In . SVG Version: 6.00 Build 0)  -->
<!DOCTYPE svg PUBLIC "-//W3C//DTD SVG 1.1//EN" "http://www.w3.org/Graphics/SVG/1.1/DTD/svg11.dtd">
<svg version="1.1" id="Layer_1" xmlns="http://www.w3.org/2000/svg" xmlns:xlink="http://www.w3.org/1999/xlink" x="0px" y="0px"
	 width="22px" height="22px" viewBox="0 0 22 22" enable-background="new 0 0 22 22" xml:space="preserve">
<path fill="white" d="M11,0C4.925,0,0,4.925,0,11c0,6.075,4.925,11,11,11s11-4.925,11-11C22,4.925,17.075,0,11,0z M11,20
	c-4.971,0-9-4.029-9-9c0-4.97,4.029-9,9-9c4.97,0,9,4.03,9,9C20,15.971,15.97,20,11,20z M14.707,13.293
	c0.391,0.391,0.391,1.024,0,1.414C14.512,14.902,14.256,15,14,15c-0.256,0-0.512-0.097-0.707-0.293l-3-3
	C10.105,11.52,10,11.265,10,11V5c0-0.552,0.448-1,1-1s1,0.448,1,1v5.586L14.707,13.293z"/>
</svg>
