<?xml version="1.0" encoding="utf-8"?>
<!-- Generator: Adobe Illustrator 16.0.0, SVG Export Plug-In . SVG Version: 6.00 Build 0)  -->
<!DOCTYPE svg PUBLIC "-//W3C//DTD SVG 1.1//EN" "http://www.w3.org/Graphics/SVG/1.1/DTD/svg11.dtd">
<svg version="1.1" id="Layer_1" xmlns="http://www.w3.org/2000/svg" xmlns:xlink="http://www.w3.org/1999/xlink" x="0px" y="0px"
	 width="24px" height="20px" viewBox="0 0 24 20" enable-background="new 0 0 24 20" xml:space="preserve">
<path fill="white" d="M24,2v6c0,0.552-0.448,1-1,1h-6c-0.552,0-1-0.448-1-1s0.448-1,1-1h3.372c-1.346-1.312-2.408-2.35-2.708-2.65
	c-0.002-0.002-0.004-0.004-0.007-0.007c-0.764-0.764-1.654-1.355-2.646-1.758C14.052,2.197,13.04,2,12,2S9.947,2.197,8.989,2.586
	C7.997,2.988,7.107,3.579,6.343,4.343C6.276,4.41,6.21,4.478,6.146,4.548c-0.64,0.686-1.147,1.466-1.511,2.324
	C4.579,7.028,4.509,7.18,4.454,7.337C4.268,7.855,3.699,8.126,3.18,7.943C2.662,7.76,2.389,7.194,2.566,6.676
	C2.642,6.457,2.728,6.241,2.82,6.029c0.199-0.462,0.434-0.908,0.701-1.334c0.336-0.537,0.726-1.044,1.162-1.511
	c0.081-0.086,0.163-0.172,0.246-0.255c0.955-0.955,2.067-1.694,3.309-2.197c0.597-0.242,1.22-0.427,1.854-0.549
	C10.718,0.062,11.36,0,12,0s1.282,0.062,1.909,0.183c0.633,0.123,1.257,0.307,1.853,0.549c1.241,0.503,2.354,1.242,3.309,2.197
	l0.015,0.014c0.321,0.32,1.477,1.448,2.915,2.85V2c0-0.552,0.448-1,1-1S24,1.448,24,2z M1,19c0.552,0,1-0.448,1-1v-3.794
	c1.438,1.402,2.594,2.531,2.914,2.85l0.015,0.015c0.955,0.954,2.067,1.693,3.309,2.197c0.597,0.242,1.22,0.427,1.854,0.549
	C10.718,19.938,11.36,20,12,20c1.286,0,2.57-0.249,3.762-0.732c1.241-0.503,2.354-1.242,3.309-2.197
	c0.084-0.083,0.166-0.169,0.247-0.255c0.435-0.467,0.825-0.974,1.162-1.511c0.267-0.426,0.501-0.872,0.701-1.334
	c0.092-0.212,0.177-0.428,0.253-0.647c0.178-0.518-0.095-1.084-0.613-1.267c-0.519-0.183-1.088,0.088-1.274,0.606
	c-0.055,0.157-0.125,0.309-0.181,0.466c-0.819,1.932-2.41,3.497-4.354,4.286C14.052,17.803,13.04,18,12,18s-2.053-0.197-3.011-0.586
	c-0.992-0.402-1.882-0.993-2.646-1.758c-0.002-0.002-0.004-0.004-0.007-0.007c-0.3-0.3-1.363-1.338-2.708-2.65H7
	c0.552,0,1-0.448,1-1s-0.448-1-1-1H1c-0.552,0-1,0.448-1,1v6C0,18.552,0.448,19,1,19z"/>
</svg>
