<?xml version="1.0" encoding="utf-8"?>
<!-- Generator: Adobe Illustrator 16.0.0, SVG Export Plug-In . SVG Version: 6.00 Build 0)  -->
<!DOCTYPE svg PUBLIC "-//W3C//DTD SVG 1.1//EN" "http://www.w3.org/Graphics/SVG/1.1/DTD/svg11.dtd">
<svg version="1.1" id="Layer_1" xmlns="http://www.w3.org/2000/svg" xmlns:xlink="http://www.w3.org/1999/xlink" x="0px" y="0px"
	 width="20px" height="24px" viewBox="0 0 20 24" enable-background="new 0 0 20 24" xml:space="preserve">
<path fill="white" d="M12,22H3c-0.552,0-1-0.448-1-1v-2V7V4.174C0.835,4.587,0,5.694,0,7v14c0,1.657,1.343,3,3,3h10
	c1.305,0,2.413-0.836,2.825-2H13H12z M17,0H7C5.343,0,4,1.343,4,3v14c0,1.657,1.343,3,3,3h10c1.657,0,3-1.344,3-3V3
	C20,1.343,18.656,0,17,0z M18,17c0,0.553-0.447,1-1,1H7c-0.552,0-1-0.448-1-1V3c0-0.552,0.448-1,1-1h10c0.553,0,1,0.448,1,1V17z"/>
</svg>
