<?xml version="1.0" encoding="utf-8"?>
<!-- Generator: Adobe Illustrator 16.0.0, SVG Export Plug-In . SVG Version: 6.00 Build 0)  -->
<!DOCTYPE svg PUBLIC "-//W3C//DTD SVG 1.1//EN" "http://www.w3.org/Graphics/SVG/1.1/DTD/svg11.dtd">
<svg version="1.1" id="Layer_1" xmlns="http://www.w3.org/2000/svg" xmlns:xlink="http://www.w3.org/1999/xlink" x="0px" y="0px"
	 width="24px" height="23px" viewBox="0 0 24 23" enable-background="new 0 0 24 23" xml:space="preserve">
<path fill="white" d="M16.167,12.814C17.297,11.723,18,10.194,18,8.5v-3c0-3.314-2.687-6-6-6c-3.314,0-6,2.686-6,6v3
	c0,1.693,0.703,3.222,1.832,4.313C3.259,13.525,0,15.372,0,17.523V19.5c0,1.657,1.342,3,3,3h18c1.657,0,3-1.343,3-3v-1.969
	C24,15.38,20.74,13.528,16.167,12.814z M8,8.5v-3c0-2.209,1.791-4,4-4s4,1.791,4,4v3c0,2.209-1.791,4-4,4S8,10.709,8,8.5z M22,19.5
	c0,0.552-0.448,1-1,1H3c-0.552,0-1-0.448-1-1v-1.977c0-0.233,0.576-0.985,2.288-1.703C6.289,14.981,9.1,14.5,12,14.5
	c2.898,0,5.708,0.482,7.71,1.323c1.713,0.72,2.29,1.474,2.29,1.708V19.5z"/>
</svg>
