<?xml version="1.0" encoding="utf-8"?>
<!-- Generator: Adobe Illustrator 16.0.0, SVG Export Plug-In . SVG Version: 6.00 Build 0)  -->
<!DOCTYPE svg PUBLIC "-//W3C//DTD SVG 1.1//EN" "http://www.w3.org/Graphics/SVG/1.1/DTD/svg11.dtd">
<svg version="1.1" id="Layer_1" xmlns="http://www.w3.org/2000/svg" xmlns:xlink="http://www.w3.org/1999/xlink" x="0px" y="0px"
	 width="1440px" height="1200px" viewBox="0 0 1440 1200" enable-background="new 0 0 1440 1200" xml:space="preserve">
<path fill="white" d="M284,81c-3,0-6-2-9-2c-3,0-5,1-5,1v12v2v6c0,0.552,0.448,1,1,1c0.552,0,1-0.448,1-1v-6.661
	c0.807-0.186,1.827-0.339,3-0.339c3,0,6,2,9,2c3,0,5-1,5-1V80C289,80,287,81,284,81z M287,92.598c-0.975,0.271-1.989,0.402-3,0.402
	c-1.462,0-2.889-0.574-4.256-1.027C278.208,91.465,276.632,91,275,91c-1.007,0-2.013,0.098-3,0.294v-9.892
	c0.975-0.271,1.989-0.402,3-0.402c1.462,0,2.889,0.574,4.256,1.027C280.792,82.535,282.368,83,284,83c1.006,0,2.013-0.098,3-0.294
	V92.598z"/>
</svg>