<?xml version="1.0" encoding="utf-8"?>
<!-- Generator: Adobe Illustrator 16.0.0, SVG Export Plug-In . SVG Version: 6.00 Build 0)  -->
<!DOCTYPE svg PUBLIC "-//W3C//DTD SVG 1.1//EN" "http://www.w3.org/Graphics/SVG/1.1/DTD/svg11.dtd">
<svg version="1.1" id="Layer_1" xmlns="http://www.w3.org/2000/svg" xmlns:xlink="http://www.w3.org/1999/xlink" x="0px" y="0px"
	 width="32px" height="32px" viewBox="0 0 32 32" enable-background="new 0 0 32 32" xml:space="preserve">
<path fill-rule="evenodd" clip-rule="evenodd" fill="white" d="M27,26.329V32l-5.605-3.451C20.617,28.676,19.819,28.75,19,28.75
	c-3.851,0-7.3-1.474-9.68-3.801C9.712,24.972,10.102,25,10.5,25c0.559,0,1.109-0.028,1.654-0.071C14.034,26.222,16.41,27,19,27
	c0.893,0,1.756-0.102,2.587-0.275l1.949,1.299c-0.002,0-0.004,0.001-0.006,0.002L25,29v-1.54v-2.003c3.008-1.695,5-4.623,5-7.957
	c0-2.108-0.805-4.05-2.151-5.626C27.938,11.259,28,10.636,28,10c0-0.291-0.032-0.575-0.051-0.861C30.439,11.21,32,14.13,32,17.375
	C32,21.015,30.039,24.247,27,26.329z M13,22.75c-0.819,0-1.618-0.074-2.395-0.201L5,26v-5.671c-3.039-2.082-5-5.315-5-8.954
	C0,5.093,5.82,0,13,0s13,5.093,13,11.375C26,17.657,20.18,22.75,13,22.75z M13,2C6.925,2,2,6.253,2,11.5
	c0,3.333,1.992,6.261,5,7.957v2.003V23l1.47-0.974c-0.002-0.001-0.004-0.002-0.006-0.002l1.948-1.299C11.244,20.898,12.107,21,13,21
	c6.075,0,11-4.253,11-9.5C24,6.253,19.075,2,13,2z M19.5,13c-0.828,0-1.5-0.671-1.5-1.5c0-0.828,0.672-1.5,1.5-1.5
	c0.829,0,1.5,0.672,1.5,1.5C21,12.329,20.329,13,19.5,13z M13.5,13c-0.828,0-1.5-0.671-1.5-1.5c0-0.828,0.672-1.5,1.5-1.5
	s1.5,0.672,1.5,1.5C15,12.329,14.328,13,13.5,13z M7.5,13C6.671,13,6,12.329,6,11.5C6,10.672,6.671,10,7.5,10
	C8.328,10,9,10.672,9,11.5C9,12.329,8.328,13,7.5,13z"/>
</svg>
