<?xml version="1.0" encoding="utf-8"?>
<!-- Generator: Adobe Illustrator 16.0.0, SVG Export Plug-In . SVG Version: 6.00 Build 0)  -->
<!DOCTYPE svg PUBLIC "-//W3C//DTD SVG 1.1//EN" "http://www.w3.org/Graphics/SVG/1.1/DTD/svg11.dtd">
<svg version="1.1" id="Layer_1" xmlns="http://www.w3.org/2000/svg" xmlns:xlink="http://www.w3.org/1999/xlink" x="0px" y="0px"
	 width="26.405px" height="26.982px" viewBox="0 0 26.405 26.982" enable-background="new 0 0 26.405 26.982" xml:space="preserve">
<path fill="white" d="M13.203,26.982c-3.3,0-11.156-0.243-12.829-2.5c-0.36-0.486-0.464-1.063-0.294-1.624
	c0.081-0.267,0.146-0.554,0.214-0.854c0.426-1.871,1.069-4.699,5.901-5.987c2.104-0.562,2.975-1.11,3.324-1.422
	c-1.986-1.435-3.233-3.97-3.233-6.688C6.286,3.547,9.388,0,13.203,0s6.917,3.547,6.917,7.907c0,2.718-1.247,5.253-3.233,6.688
	c0.35,0.312,1.22,0.86,3.324,1.422c4.832,1.288,5.476,4.116,5.901,5.987c0.068,0.301,0.133,0.588,0.214,0.854
	c0.17,0.561,0.066,1.138-0.294,1.624C24.359,26.739,16.502,26.982,13.203,26.982z M2.021,23.346
	c0.62,0.705,4.715,1.637,11.182,1.637s10.562-0.932,11.182-1.637c-0.082-0.282-0.151-0.584-0.223-0.897
	c-0.395-1.731-0.802-3.522-4.467-4.5c-2.754-0.734-4.343-1.647-4.855-2.792c-0.33-0.737-0.102-1.296-0.024-1.449l0.141-0.277
	l0.272-0.148c1.757-0.962,2.892-3.07,2.892-5.374C18.12,4.65,15.914,2,13.203,2S8.286,4.65,8.286,7.907
	c0,2.304,1.135,4.412,2.892,5.374l0.272,0.148l0.141,0.277c0.077,0.153,0.306,0.712-0.024,1.449
	c-0.513,1.145-2.102,2.058-4.855,2.792c-3.665,0.978-4.072,2.769-4.467,4.5C2.172,22.762,2.103,23.063,2.021,23.346z"/>
</svg>
