<?xml version="1.0" encoding="utf-8"?>
<!-- Generator: Adobe Illustrator 16.0.0, SVG Export Plug-In . SVG Version: 6.00 Build 0)  -->
<!DOCTYPE svg PUBLIC "-//W3C//DTD SVG 1.1//EN" "http://www.w3.org/Graphics/SVG/1.1/DTD/svg11.dtd">
<svg version="1.1" id="Layer_1" xmlns="http://www.w3.org/2000/svg" xmlns:xlink="http://www.w3.org/1999/xlink" x="0px" y="0px"
	 width="32px" height="32px" viewBox="0 0 32 32" enable-background="new 0 0 32 32" xml:space="preserve">
<path fill="white" d="M22.285,11.301l-8.097,8.277l-4.481-4.48c-0.391-0.391-1.023-0.391-1.414,0s-0.391,1.024,0,1.414l5.196,5.195
	C13.677,21.895,13.931,22,14.196,22c0.002,0,0.004,0,0.005,0c0.267-0.001,0.523-0.11,0.709-0.301l8.804-9
	c0.386-0.395,0.379-1.028-0.016-1.414C23.306,10.899,22.672,10.906,22.285,11.301z"/>
<path fill="white" d="M16,0C7.178,0,0,7.178,0,16s7.178,16,16,16s16-7.178,16-16S24.822,0,16,0z M16,30C8.28,30,2,23.72,2,16
	S8.28,2,16,2s14,6.28,14,14S23.72,30,16,30z"/>
</svg>
