<?xml version="1.0" encoding="utf-8"?>
<!-- Generator: Adobe Illustrator 16.0.0, SVG Export Plug-In . SVG Version: 6.00 Build 0)  -->
<!DOCTYPE svg PUBLIC "-//W3C//DTD SVG 1.1//EN" "http://www.w3.org/Graphics/SVG/1.1/DTD/svg11.dtd">
<svg version="1.1" id="Layer_1" xmlns="http://www.w3.org/2000/svg" xmlns:xlink="http://www.w3.org/1999/xlink" x="0px" y="0px"
	 width="18.915px" height="26.898px" viewBox="0 0 18.915 26.898" enable-background="new 0 0 18.915 26.898" xml:space="preserve">
<path fill="white" d="M9.457,11.357"/>
<path fill="white" d="M1.748,0h15.419c0.963,0,1.748,0.784,1.748,1.747c0,0.944-0.753,1.715-1.69,1.746
	c-0.167,2.181-0.91,7.63-4.188,9.306c-0.079,0.06-0.329,0.268-0.524,0.635c0,0.012,0,0.022,0.001,0.033
	c0.194,0.365,0.443,0.573,0.522,0.633c3.278,1.676,4.021,7.125,4.188,9.306c0.937,0.031,1.69,0.803,1.69,1.747
	c0,0.963-0.784,1.746-1.748,1.746H1.748C0.784,26.898,0,26.115,0,25.152c0-0.944,0.754-1.717,1.691-1.747
	c0.167-2.181,0.911-7.632,4.19-9.307c0.082-0.061,0.334-0.27,0.531-0.649C6.183,13.01,5.87,12.79,5.867,12.788
	c-3.27-1.601-4.01-7.101-4.176-9.295C0.754,3.462,0,2.691,0,1.747C0,0.784,0.784,0,1.748,0z M15.444,1.842H3.472l0.013,0.714
	c0.038,1.971,0.699,7.36,3.271,8.622c0.166,0.098,0.947,0.603,1.413,1.682c0.106,0.249,0.161,0.802,0.015,1.145
	c-0.46,1.101-1.26,1.619-1.35,1.674c-2.65,1.305-3.312,6.694-3.35,8.665l-0.013,0.714h11.972l-0.013-0.714
	c-0.038-1.971-0.699-7.36-3.271-8.622c-0.161-0.095-0.892-0.567-1.361-1.566c-0.145-0.31-0.185-0.995-0.026-1.354
	c0.472-1.041,1.224-1.527,1.308-1.58c2.651-1.305,3.313-6.694,3.35-8.665L15.444,1.842z"/>
<path fill="white" d="M7.274,9.518l2.092,1.84l2.17-1.778c2.847-2.076,2.644-6.587,2.644-6.587H9.366H4.731
	C4.731,2.992,4.906,7.658,7.274,9.518z"/>
<path fill="white" d="M9.457,22.673l1.435,1.554H8.101L9.457,22.673z"/>
</svg>
