<?xml version="1.0" encoding="utf-8"?>
<!-- Generator: Adobe Illustrator 16.0.0, SVG Export Plug-In . SVG Version: 6.00 Build 0)  -->
<!DOCTYPE svg PUBLIC "-//W3C//DTD SVG 1.1//EN" "http://www.w3.org/Graphics/SVG/1.1/DTD/svg11.dtd">
<svg version="1.1" id="Layer_1" xmlns="http://www.w3.org/2000/svg" xmlns:xlink="http://www.w3.org/1999/xlink" x="0px" y="0px"
	 width="17px" height="17px" viewBox="0 0 17 17" enable-background="new 0 0 17 17" xml:space="preserve">
<path fill="white" d="M16.844,16.093l-4.499-3.968c1.234-1.289,1.998-3.032,1.998-4.954C14.344,3.217,11.126,0,7.172,0
	S0,3.217,0,7.172s3.217,7.172,7.172,7.172c1.65,0,3.169-0.566,4.382-1.507l4.539,4.008C16.197,16.948,16.333,17,16.469,17
	s0.272-0.052,0.375-0.156C17.052,16.637,17.052,16.301,16.844,16.093z M1.063,7.172c0-3.369,2.74-6.109,6.109-6.109
	c3.369,0,6.109,2.74,6.109,6.109c0,3.369-2.741,6.109-6.109,6.109C3.803,13.281,1.063,10.541,1.063,7.172z"/>
</svg>
