<?xml version="1.0" encoding="utf-8"?>
<!-- Generator: Adobe Illustrator 16.0.0, SVG Export Plug-In . SVG Version: 6.00 Build 0)  -->
<!DOCTYPE svg PUBLIC "-//W3C//DTD SVG 1.1//EN" "http://www.w3.org/Graphics/SVG/1.1/DTD/svg11.dtd">
<svg version="1.1" id="Layer_1" xmlns="http://www.w3.org/2000/svg" xmlns:xlink="http://www.w3.org/1999/xlink" x="0px" y="0px"
	 width="30px" height="32px" viewBox="0 0 30 32" enable-background="new 0 0 30 32" xml:space="preserve">
<path fill="#FFFFFF" d="M26.707,5.707c0.106-0.105,0.177-0.229,0.226-0.36l1.36,1.36C28.488,6.903,28.744,7,29,7
	c0.256,0,0.512-0.098,0.707-0.293c0.391-0.391,0.391-1.023,0-1.414l-4-4c-0.391-0.391-1.023-0.391-1.414,0
	c-0.391,0.391-0.391,1.023,0,1.414l1.36,1.361c-0.131,0.049-0.255,0.12-0.36,0.226l-0.974,0.974C22.003,3.424,19.133,2.259,16,2.051
	V1c0-0.552-0.447-1-1-1c-0.552,0-1,0.448-1,1v1.051C6.195,2.57,0,9.067,0,17c0,8.271,6.728,15,15,15s15-6.729,15-15
	c0-4.031-1.605-7.688-4.201-10.385L26.707,5.707z M15,30C7.832,30,2,24.168,2,17S7.832,4,15,4c7.168,0,13,5.832,13,13
	S22.168,30,15,30z"/>
<path fill="#FFFFFF" d="M16,14.185V7c0-0.553-0.447-1-1-1c-0.552,0-1,0.447-1,1v7.185c-1.161,0.414-2,1.513-2,2.815
	c0,1.654,1.345,3,3,3c1.655,0,3-1.346,3-3C18,15.698,17.161,14.599,16,14.185z M16,18h-2v-2h2V18z"/>
</svg>
