<?xml version="1.0" encoding="utf-8"?>
<!-- Generator: Adobe Illustrator 16.0.0, SVG Export Plug-In . SVG Version: 6.00 Build 0)  -->
<!DOCTYPE svg PUBLIC "-//W3C//DTD SVG 1.1//EN" "http://www.w3.org/Graphics/SVG/1.1/DTD/svg11.dtd">
<svg version="1.1" id="Layer_1" xmlns="http://www.w3.org/2000/svg" xmlns:xlink="http://www.w3.org/1999/xlink" x="0px" y="0px"
	 width="22px" height="22px" viewBox="0 0 22 22" enable-background="new 0 0 22 22" xml:space="preserve">
<path fill="#FFFFFF" d="M19,0H3C1.342,0,0,1.343,0,3v16c0,1.657,1.342,3,3,3h16c1.657,0,3-1.343,3-3V3C22,1.343,20.657,0,19,0z M20,19
	c0,0.552-0.448,1-1,1H3c-0.553,0-1-0.448-1-1V3c0-0.552,0.447-1,1-1h16c0.552,0,1,0.448,1,1V19z M14.536,7.464
	c-0.39-0.39-1.024-0.39-1.415,0L11,9.586L8.879,7.464c-0.391-0.39-1.024-0.39-1.415,0c-0.391,0.391-0.391,1.024,0,1.415L9.586,11
	l-2.122,2.121c-0.391,0.39-0.391,1.024,0,1.415c0.391,0.39,1.024,0.39,1.415,0L11,12.414l2.121,2.121c0.391,0.39,1.024,0.39,1.415,0
	c0.39-0.391,0.39-1.025,0-1.415L12.414,11l2.122-2.121C14.926,8.488,14.926,7.855,14.536,7.464z"/>
</svg>
